<?xml version="1.0" encoding="utf-8"?>
<svg viewBox="98.843 119.948 203.131 259.456" xmlns="http://www.w3.org/2000/svg">
    <path id="middle"
        d="M 200.552 227.586 C 184.189 224.225 174.444 213.663 174.444 198.661 C 174.444 182.579 187.799 169.617 204.402 169.617 C 229.066 169.617 249.037 189.54 249.037 214.144 C 249.037 226.986 247.232 239.588 243.503 251.589 C 233.998 238.747 217.034 230.946 200.552 227.586 M 223.772 377.489 C 223.772 377.489 232.675 345.684 232.675 319.88 C 232.675 295.156 216.433 275.113 191.649 275.113 C 166.744 275.113 147.976 295.156 147.976 319.88 L 148.337 324.201 C 124.034 295.396 109.476 258.07 109.476 217.504 C 109.476 164.456 152.548 121.489 205.725 121.489 C 258.903 121.489 301.974 164.456 301.974 217.504 C 301.974 282.194 270.813 339.923 223.772 377.489 M 205.725 145.493 C 165.902 145.493 133.538 177.778 133.538 217.504 C 133.538 235.867 137.148 253.99 143.885 270.672 C 156.037 258.55 172.88 251.109 191.649 251.109 C 223.652 251.109 248.797 273.073 255.173 304.278 C 269.971 277.873 277.912 248.229 277.912 217.504 C 277.912 177.778 245.548 145.493 205.725 145.493"
        style="paint-order: stroke; fill: hsl(20deg 100% 58%); transform-origin: 205.725px 249.489px;"
        transform="matrix(-1, 0, 0, -1, -0.000030517578, 0)" />
    <path id="back"
        d="M 213.139 375.948 C 213.139 375.948 222.042 344.143 222.042 318.339 C 222.042 293.615 205.8 273.572 181.015 273.572 C 156.111 273.572 137.343 293.615 137.343 318.339 L 137.704 322.66 C 113.401 293.855 98.843 256.529 98.843 215.963 C 98.843 162.915 141.914 119.948 195.092 119.948 C 248.269 119.948 291.341 162.915 291.341 215.963 C 291.341 280.653 260.18 338.382 213.139 375.948 M 195.092 143.952 C 155.269 143.952 122.905 176.237 122.905 215.963 C 122.905 234.326 126.515 252.449 133.252 269.131 C 145.403 257.009 162.247 249.568 181.015 249.568 C 213.018 249.568 238.163 271.532 244.54 302.737 C 259.338 276.332 267.279 246.688 267.279 215.963 C 267.279 176.237 234.915 143.952 195.092 143.952"
        style="paint-order: stroke; fill: hsl(20deg 100% 58%); transform-origin: 195.092px 247.948px;"
        transform="matrix(-1, 0, 0, -1, -0.000030517578, 0)" />
    <path id="fore"
        d="M 200.368 229.501 C 184.006 226.14 174.261 215.578 174.261 200.576 C 174.261 184.494 187.615 171.532 204.218 171.532 C 228.882 171.532 248.854 191.455 248.854 216.059 C 248.854 228.901 247.049 241.503 243.319 253.504 C 233.815 240.662 216.851 232.861 200.368 229.501 M 223.588 379.404 C 223.588 379.404 232.491 347.599 232.491 321.795 C 232.491 297.071 216.249 277.028 191.465 277.028 C 166.561 277.028 147.792 297.071 147.792 321.795 L 148.153 326.116 C 123.85 297.311 109.293 259.985 109.293 219.419 C 109.293 166.371 152.364 123.404 205.542 123.404 C 258.719 123.404 301.791 166.371 301.791 219.419 C 301.791 284.109 270.63 341.838 223.588 379.404 M 205.542 147.408 C 165.719 147.408 133.355 179.693 133.355 219.419 C 133.355 237.782 136.964 255.905 143.702 272.587 C 155.853 260.465 172.697 253.024 191.465 253.024 C 223.468 253.024 248.613 274.988 254.99 306.193 C 269.788 279.788 277.728 250.144 277.728 219.419 C 277.728 179.693 245.365 147.408 205.542 147.408"
        style="paint-order: stroke; fill: hsl(32deg 100% 62%); transform-origin: 205.542px 251.404px;"
        transform="matrix(-1, 0, 0, -1, 0, 0.000030517578)" />
</svg>